<mxfile host="app.diagrams.net" agent="Mozilla/5.0 (Windows NT 10.0; Win64; x64) AppleWebKit/537.36 (KHTML, like Gecko) Chrome/137.0.0.0 Safari/537.36" version="27.1.6">
  <diagram name="페이지-1" id="x08cD2F-YXLgG7ajANE-">
    <mxGraphModel dx="730" dy="535" grid="1" gridSize="10" guides="1" tooltips="1" connect="1" arrows="1" fold="1" page="1" pageScale="1" pageWidth="827" pageHeight="1169" math="0" shadow="0">
      <root>
        <mxCell id="0" />
        <mxCell id="1" parent="0" />
        <mxCell id="yLh817vD24dYJDE2Oi6T-1" value="" style="rounded=0;whiteSpace=wrap;html=1;" vertex="1" parent="1">
          <mxGeometry x="40" y="120" width="120" height="200" as="geometry" />
        </mxCell>
        <mxCell id="yLh817vD24dYJDE2Oi6T-4" value="대충 앱 이름" style="text;html=1;align=center;verticalAlign=middle;whiteSpace=wrap;rounded=0;" vertex="1" parent="1">
          <mxGeometry x="60" y="150" width="80" height="30" as="geometry" />
        </mxCell>
        <mxCell id="yLh817vD24dYJDE2Oi6T-5" value="id" style="rounded=0;whiteSpace=wrap;html=1;" vertex="1" parent="1">
          <mxGeometry x="50" y="210" width="100" height="20" as="geometry" />
        </mxCell>
        <mxCell id="yLh817vD24dYJDE2Oi6T-6" value="pw" style="rounded=0;whiteSpace=wrap;html=1;" vertex="1" parent="1">
          <mxGeometry x="50" y="230" width="100" height="20" as="geometry" />
        </mxCell>
        <mxCell id="yLh817vD24dYJDE2Oi6T-7" value="" style="shape=flexArrow;endArrow=classic;html=1;rounded=0;strokeColor=light-dark(#0aff3b, #ededed);" edge="1" parent="1">
          <mxGeometry width="50" height="50" relative="1" as="geometry">
            <mxPoint x="182" y="219.71" as="sourcePoint" />
            <mxPoint x="252" y="219.71" as="targetPoint" />
          </mxGeometry>
        </mxCell>
        <mxCell id="yLh817vD24dYJDE2Oi6T-9" value="" style="rounded=0;whiteSpace=wrap;html=1;" vertex="1" parent="1">
          <mxGeometry x="280" y="120" width="120" height="200" as="geometry" />
        </mxCell>
        <mxCell id="yLh817vD24dYJDE2Oi6T-10" value="&lt;font style=&quot;font-size: 7px;&quot;&gt;회원가입 링크&lt;/font&gt;" style="text;html=1;align=center;verticalAlign=middle;whiteSpace=wrap;rounded=0;strokeColor=#0AFF3B;" vertex="1" parent="1">
          <mxGeometry x="75" y="280" width="50" height="10" as="geometry" />
        </mxCell>
        <mxCell id="yLh817vD24dYJDE2Oi6T-14" value="회원가입" style="text;html=1;align=center;verticalAlign=middle;whiteSpace=wrap;rounded=0;" vertex="1" parent="1">
          <mxGeometry x="310" y="150" width="60" height="30" as="geometry" />
        </mxCell>
        <mxCell id="yLh817vD24dYJDE2Oi6T-16" value="id" style="rounded=0;whiteSpace=wrap;html=1;fontSize=9;" vertex="1" parent="1">
          <mxGeometry x="290" y="200" width="100" height="10" as="geometry" />
        </mxCell>
        <mxCell id="yLh817vD24dYJDE2Oi6T-17" value="pw" style="rounded=0;whiteSpace=wrap;html=1;fontSize=9;" vertex="1" parent="1">
          <mxGeometry x="290" y="210" width="100" height="10" as="geometry" />
        </mxCell>
        <mxCell id="yLh817vD24dYJDE2Oi6T-18" value="pw check" style="rounded=0;whiteSpace=wrap;html=1;fontSize=9;" vertex="1" parent="1">
          <mxGeometry x="290" y="220" width="100" height="10" as="geometry" />
        </mxCell>
        <mxCell id="yLh817vD24dYJDE2Oi6T-20" value="폰번호" style="rounded=0;whiteSpace=wrap;html=1;fontSize=9;" vertex="1" parent="1">
          <mxGeometry x="290" y="230" width="100" height="10" as="geometry" />
        </mxCell>
        <mxCell id="yLh817vD24dYJDE2Oi6T-22" value="로그인 btn" style="rounded=1;whiteSpace=wrap;html=1;" vertex="1" parent="1">
          <mxGeometry x="60" y="255" width="80" height="20" as="geometry" />
        </mxCell>
        <mxCell id="yLh817vD24dYJDE2Oi6T-23" value="1. 로그인 (기본 구성)" style="text;html=1;align=left;verticalAlign=middle;whiteSpace=wrap;rounded=0;" vertex="1" parent="1">
          <mxGeometry x="40" y="40" width="280" height="30" as="geometry" />
        </mxCell>
        <mxCell id="yLh817vD24dYJDE2Oi6T-24" value="등록 btn" style="rounded=1;whiteSpace=wrap;html=1;" vertex="1" parent="1">
          <mxGeometry x="300" y="275" width="80" height="20" as="geometry" />
        </mxCell>
        <mxCell id="yLh817vD24dYJDE2Oi6T-25" value="" style="shape=flexArrow;endArrow=classic;html=1;rounded=0;endWidth=8.9518490158101;endSize=3.033557046979866;width=6.308724832214765;" edge="1" parent="1">
          <mxGeometry width="50" height="50" relative="1" as="geometry">
            <mxPoint x="304" y="133" as="sourcePoint" />
            <mxPoint x="284" y="133" as="targetPoint" />
          </mxGeometry>
        </mxCell>
        <mxCell id="yLh817vD24dYJDE2Oi6T-26" value="" style="endArrow=none;html=1;rounded=0;" edge="1" parent="1">
          <mxGeometry width="50" height="50" relative="1" as="geometry">
            <mxPoint x="270" y="100" as="sourcePoint" />
            <mxPoint x="290" y="130" as="targetPoint" />
          </mxGeometry>
        </mxCell>
        <mxCell id="yLh817vD24dYJDE2Oi6T-27" value="&lt;font style=&quot;font-size: 10px;&quot;&gt;뒤로가기 btn&lt;/font&gt;" style="text;html=1;align=center;verticalAlign=middle;whiteSpace=wrap;rounded=0;" vertex="1" parent="1">
          <mxGeometry x="230" y="80" width="60" height="30" as="geometry" />
        </mxCell>
        <mxCell id="yLh817vD24dYJDE2Oi6T-28" value="&lt;ul&gt;&lt;li&gt;구성만 참고&lt;/li&gt;&lt;li&gt;디자인은 자유롭게&lt;/li&gt;&lt;li&gt;테마 컬러 회의 필요&lt;/li&gt;&lt;li&gt;폰번호 인증은 어떻게?&lt;/li&gt;&lt;li&gt;전체적인 구성 회의 필요&lt;/li&gt;&lt;li&gt;디자이너는 누구?&lt;/li&gt;&lt;li&gt;디자이너 = 최수환&lt;/li&gt;&lt;/ul&gt;" style="text;strokeColor=none;fillColor=none;html=1;whiteSpace=wrap;verticalAlign=middle;overflow=hidden;" vertex="1" parent="1">
          <mxGeometry x="40" y="360" width="280" height="120" as="geometry" />
        </mxCell>
        <mxCell id="yLh817vD24dYJDE2Oi6T-29" value="인증번호" style="rounded=0;whiteSpace=wrap;html=1;fontSize=9;" vertex="1" parent="1">
          <mxGeometry x="290" y="240" width="100" height="10" as="geometry" />
        </mxCell>
        <mxCell id="yLh817vD24dYJDE2Oi6T-30" value="" style="shape=table;startSize=0;container=1;collapsible=0;childLayout=tableLayout;fontSize=14;" vertex="1" parent="1">
          <mxGeometry x="40" y="540" width="560" height="110" as="geometry" />
        </mxCell>
        <mxCell id="yLh817vD24dYJDE2Oi6T-31" value="" style="shape=tableRow;horizontal=0;startSize=0;swimlaneHead=0;swimlaneBody=0;strokeColor=inherit;top=0;left=0;bottom=0;right=0;collapsible=0;dropTarget=0;fillColor=none;points=[[0,0.5],[1,0.5]];portConstraint=eastwest;fontSize=16;" vertex="1" parent="yLh817vD24dYJDE2Oi6T-30">
          <mxGeometry width="560" height="22" as="geometry" />
        </mxCell>
        <mxCell id="yLh817vD24dYJDE2Oi6T-32" value="이름" style="shape=partialRectangle;html=1;whiteSpace=wrap;connectable=0;strokeColor=inherit;overflow=hidden;fillColor=none;top=0;left=0;bottom=0;right=0;pointerEvents=1;fontSize=11;" vertex="1" parent="yLh817vD24dYJDE2Oi6T-31">
          <mxGeometry width="112" height="22" as="geometry">
            <mxRectangle width="112" height="22" as="alternateBounds" />
          </mxGeometry>
        </mxCell>
        <mxCell id="yLh817vD24dYJDE2Oi6T-33" value="column 명" style="shape=partialRectangle;html=1;whiteSpace=wrap;connectable=0;strokeColor=inherit;overflow=hidden;fillColor=none;top=0;left=0;bottom=0;right=0;pointerEvents=1;fontSize=11;" vertex="1" parent="yLh817vD24dYJDE2Oi6T-31">
          <mxGeometry x="112" width="113" height="22" as="geometry">
            <mxRectangle width="113" height="22" as="alternateBounds" />
          </mxGeometry>
        </mxCell>
        <mxCell id="yLh817vD24dYJDE2Oi6T-34" value="type" style="shape=partialRectangle;html=1;whiteSpace=wrap;connectable=0;strokeColor=inherit;overflow=hidden;fillColor=none;top=0;left=0;bottom=0;right=0;pointerEvents=1;fontSize=11;" vertex="1" parent="yLh817vD24dYJDE2Oi6T-31">
          <mxGeometry x="225" width="112" height="22" as="geometry">
            <mxRectangle width="112" height="22" as="alternateBounds" />
          </mxGeometry>
        </mxCell>
        <mxCell id="yLh817vD24dYJDE2Oi6T-56" value="KEY" style="shape=partialRectangle;html=1;whiteSpace=wrap;connectable=0;strokeColor=inherit;overflow=hidden;fillColor=none;top=0;left=0;bottom=0;right=0;pointerEvents=1;fontSize=11;" vertex="1" parent="yLh817vD24dYJDE2Oi6T-31">
          <mxGeometry x="337" width="111" height="22" as="geometry">
            <mxRectangle width="111" height="22" as="alternateBounds" />
          </mxGeometry>
        </mxCell>
        <mxCell id="yLh817vD24dYJDE2Oi6T-61" value="not null" style="shape=partialRectangle;html=1;whiteSpace=wrap;connectable=0;strokeColor=inherit;overflow=hidden;fillColor=none;top=0;left=0;bottom=0;right=0;pointerEvents=1;fontSize=11;" vertex="1" parent="yLh817vD24dYJDE2Oi6T-31">
          <mxGeometry x="448" width="112" height="22" as="geometry">
            <mxRectangle width="112" height="22" as="alternateBounds" />
          </mxGeometry>
        </mxCell>
        <mxCell id="yLh817vD24dYJDE2Oi6T-35" value="" style="shape=tableRow;horizontal=0;startSize=0;swimlaneHead=0;swimlaneBody=0;strokeColor=inherit;top=0;left=0;bottom=0;right=0;collapsible=0;dropTarget=0;fillColor=none;points=[[0,0.5],[1,0.5]];portConstraint=eastwest;fontSize=16;" vertex="1" parent="yLh817vD24dYJDE2Oi6T-30">
          <mxGeometry y="22" width="560" height="22" as="geometry" />
        </mxCell>
        <mxCell id="yLh817vD24dYJDE2Oi6T-36" value="아이디" style="shape=partialRectangle;html=1;whiteSpace=wrap;connectable=0;strokeColor=inherit;overflow=hidden;fillColor=none;top=0;left=0;bottom=0;right=0;pointerEvents=1;fontSize=11;" vertex="1" parent="yLh817vD24dYJDE2Oi6T-35">
          <mxGeometry width="112" height="22" as="geometry">
            <mxRectangle width="112" height="22" as="alternateBounds" />
          </mxGeometry>
        </mxCell>
        <mxCell id="yLh817vD24dYJDE2Oi6T-37" value="reg_id" style="shape=partialRectangle;html=1;whiteSpace=wrap;connectable=0;strokeColor=inherit;overflow=hidden;fillColor=none;top=0;left=0;bottom=0;right=0;pointerEvents=1;fontSize=11;" vertex="1" parent="yLh817vD24dYJDE2Oi6T-35">
          <mxGeometry x="112" width="113" height="22" as="geometry">
            <mxRectangle width="113" height="22" as="alternateBounds" />
          </mxGeometry>
        </mxCell>
        <mxCell id="yLh817vD24dYJDE2Oi6T-38" value="varchar2(12 char)" style="shape=partialRectangle;html=1;whiteSpace=wrap;connectable=0;strokeColor=inherit;overflow=hidden;fillColor=none;top=0;left=0;bottom=0;right=0;pointerEvents=1;fontSize=11;" vertex="1" parent="yLh817vD24dYJDE2Oi6T-35">
          <mxGeometry x="225" width="112" height="22" as="geometry">
            <mxRectangle width="112" height="22" as="alternateBounds" />
          </mxGeometry>
        </mxCell>
        <mxCell id="yLh817vD24dYJDE2Oi6T-57" value="o" style="shape=partialRectangle;html=1;whiteSpace=wrap;connectable=0;strokeColor=inherit;overflow=hidden;fillColor=none;top=0;left=0;bottom=0;right=0;pointerEvents=1;fontSize=11;" vertex="1" parent="yLh817vD24dYJDE2Oi6T-35">
          <mxGeometry x="337" width="111" height="22" as="geometry">
            <mxRectangle width="111" height="22" as="alternateBounds" />
          </mxGeometry>
        </mxCell>
        <mxCell id="yLh817vD24dYJDE2Oi6T-62" value="o" style="shape=partialRectangle;html=1;whiteSpace=wrap;connectable=0;strokeColor=inherit;overflow=hidden;fillColor=none;top=0;left=0;bottom=0;right=0;pointerEvents=1;fontSize=11;" vertex="1" parent="yLh817vD24dYJDE2Oi6T-35">
          <mxGeometry x="448" width="112" height="22" as="geometry">
            <mxRectangle width="112" height="22" as="alternateBounds" />
          </mxGeometry>
        </mxCell>
        <mxCell id="yLh817vD24dYJDE2Oi6T-39" value="" style="shape=tableRow;horizontal=0;startSize=0;swimlaneHead=0;swimlaneBody=0;strokeColor=inherit;top=0;left=0;bottom=0;right=0;collapsible=0;dropTarget=0;fillColor=none;points=[[0,0.5],[1,0.5]];portConstraint=eastwest;fontSize=16;" vertex="1" parent="yLh817vD24dYJDE2Oi6T-30">
          <mxGeometry y="44" width="560" height="22" as="geometry" />
        </mxCell>
        <mxCell id="yLh817vD24dYJDE2Oi6T-40" value="비밀번호" style="shape=partialRectangle;html=1;whiteSpace=wrap;connectable=0;strokeColor=inherit;overflow=hidden;fillColor=none;top=0;left=0;bottom=0;right=0;pointerEvents=1;fontSize=11;" vertex="1" parent="yLh817vD24dYJDE2Oi6T-39">
          <mxGeometry width="112" height="22" as="geometry">
            <mxRectangle width="112" height="22" as="alternateBounds" />
          </mxGeometry>
        </mxCell>
        <mxCell id="yLh817vD24dYJDE2Oi6T-41" value="reg_password" style="shape=partialRectangle;html=1;whiteSpace=wrap;connectable=0;strokeColor=inherit;overflow=hidden;fillColor=none;top=0;left=0;bottom=0;right=0;pointerEvents=1;fontSize=11;" vertex="1" parent="yLh817vD24dYJDE2Oi6T-39">
          <mxGeometry x="112" width="113" height="22" as="geometry">
            <mxRectangle width="113" height="22" as="alternateBounds" />
          </mxGeometry>
        </mxCell>
        <mxCell id="yLh817vD24dYJDE2Oi6T-42" value="varchar2(20 char)" style="shape=partialRectangle;html=1;whiteSpace=wrap;connectable=0;strokeColor=inherit;overflow=hidden;fillColor=none;top=0;left=0;bottom=0;right=0;pointerEvents=1;fontSize=11;" vertex="1" parent="yLh817vD24dYJDE2Oi6T-39">
          <mxGeometry x="225" width="112" height="22" as="geometry">
            <mxRectangle width="112" height="22" as="alternateBounds" />
          </mxGeometry>
        </mxCell>
        <mxCell id="yLh817vD24dYJDE2Oi6T-58" style="shape=partialRectangle;html=1;whiteSpace=wrap;connectable=0;strokeColor=inherit;overflow=hidden;fillColor=none;top=0;left=0;bottom=0;right=0;pointerEvents=1;fontSize=11;" vertex="1" parent="yLh817vD24dYJDE2Oi6T-39">
          <mxGeometry x="337" width="111" height="22" as="geometry">
            <mxRectangle width="111" height="22" as="alternateBounds" />
          </mxGeometry>
        </mxCell>
        <mxCell id="yLh817vD24dYJDE2Oi6T-63" value="o" style="shape=partialRectangle;html=1;whiteSpace=wrap;connectable=0;strokeColor=inherit;overflow=hidden;fillColor=none;top=0;left=0;bottom=0;right=0;pointerEvents=1;fontSize=11;" vertex="1" parent="yLh817vD24dYJDE2Oi6T-39">
          <mxGeometry x="448" width="112" height="22" as="geometry">
            <mxRectangle width="112" height="22" as="alternateBounds" />
          </mxGeometry>
        </mxCell>
        <mxCell id="yLh817vD24dYJDE2Oi6T-47" style="shape=tableRow;horizontal=0;startSize=0;swimlaneHead=0;swimlaneBody=0;strokeColor=inherit;top=0;left=0;bottom=0;right=0;collapsible=0;dropTarget=0;fillColor=none;points=[[0,0.5],[1,0.5]];portConstraint=eastwest;fontSize=16;" vertex="1" parent="yLh817vD24dYJDE2Oi6T-30">
          <mxGeometry y="66" width="560" height="22" as="geometry" />
        </mxCell>
        <mxCell id="yLh817vD24dYJDE2Oi6T-48" value="비밀번호 확인" style="shape=partialRectangle;html=1;whiteSpace=wrap;connectable=0;strokeColor=inherit;overflow=hidden;fillColor=none;top=0;left=0;bottom=0;right=0;pointerEvents=1;fontSize=11;" vertex="1" parent="yLh817vD24dYJDE2Oi6T-47">
          <mxGeometry width="112" height="22" as="geometry">
            <mxRectangle width="112" height="22" as="alternateBounds" />
          </mxGeometry>
        </mxCell>
        <mxCell id="yLh817vD24dYJDE2Oi6T-49" value="reg_password_check" style="shape=partialRectangle;html=1;whiteSpace=wrap;connectable=0;strokeColor=inherit;overflow=hidden;fillColor=none;top=0;left=0;bottom=0;right=0;pointerEvents=1;fontSize=11;" vertex="1" parent="yLh817vD24dYJDE2Oi6T-47">
          <mxGeometry x="112" width="113" height="22" as="geometry">
            <mxRectangle width="113" height="22" as="alternateBounds" />
          </mxGeometry>
        </mxCell>
        <mxCell id="yLh817vD24dYJDE2Oi6T-50" value="varchar2(20 char)" style="shape=partialRectangle;html=1;whiteSpace=wrap;connectable=0;strokeColor=inherit;overflow=hidden;fillColor=none;top=0;left=0;bottom=0;right=0;pointerEvents=1;fontSize=11;" vertex="1" parent="yLh817vD24dYJDE2Oi6T-47">
          <mxGeometry x="225" width="112" height="22" as="geometry">
            <mxRectangle width="112" height="22" as="alternateBounds" />
          </mxGeometry>
        </mxCell>
        <mxCell id="yLh817vD24dYJDE2Oi6T-59" style="shape=partialRectangle;html=1;whiteSpace=wrap;connectable=0;strokeColor=inherit;overflow=hidden;fillColor=none;top=0;left=0;bottom=0;right=0;pointerEvents=1;fontSize=11;" vertex="1" parent="yLh817vD24dYJDE2Oi6T-47">
          <mxGeometry x="337" width="111" height="22" as="geometry">
            <mxRectangle width="111" height="22" as="alternateBounds" />
          </mxGeometry>
        </mxCell>
        <mxCell id="yLh817vD24dYJDE2Oi6T-64" value="o" style="shape=partialRectangle;html=1;whiteSpace=wrap;connectable=0;strokeColor=inherit;overflow=hidden;fillColor=none;top=0;left=0;bottom=0;right=0;pointerEvents=1;fontSize=11;" vertex="1" parent="yLh817vD24dYJDE2Oi6T-47">
          <mxGeometry x="448" width="112" height="22" as="geometry">
            <mxRectangle width="112" height="22" as="alternateBounds" />
          </mxGeometry>
        </mxCell>
        <mxCell id="yLh817vD24dYJDE2Oi6T-43" style="shape=tableRow;horizontal=0;startSize=0;swimlaneHead=0;swimlaneBody=0;strokeColor=inherit;top=0;left=0;bottom=0;right=0;collapsible=0;dropTarget=0;fillColor=none;points=[[0,0.5],[1,0.5]];portConstraint=eastwest;fontSize=16;" vertex="1" parent="yLh817vD24dYJDE2Oi6T-30">
          <mxGeometry y="88" width="560" height="22" as="geometry" />
        </mxCell>
        <mxCell id="yLh817vD24dYJDE2Oi6T-44" value="휴대폰 번호" style="shape=partialRectangle;html=1;whiteSpace=wrap;connectable=0;strokeColor=inherit;overflow=hidden;fillColor=none;top=0;left=0;bottom=0;right=0;pointerEvents=1;fontSize=11;" vertex="1" parent="yLh817vD24dYJDE2Oi6T-43">
          <mxGeometry width="112" height="22" as="geometry">
            <mxRectangle width="112" height="22" as="alternateBounds" />
          </mxGeometry>
        </mxCell>
        <mxCell id="yLh817vD24dYJDE2Oi6T-45" value="reg_phone_number" style="shape=partialRectangle;html=1;whiteSpace=wrap;connectable=0;strokeColor=inherit;overflow=hidden;fillColor=none;top=0;left=0;bottom=0;right=0;pointerEvents=1;fontSize=11;" vertex="1" parent="yLh817vD24dYJDE2Oi6T-43">
          <mxGeometry x="112" width="113" height="22" as="geometry">
            <mxRectangle width="113" height="22" as="alternateBounds" />
          </mxGeometry>
        </mxCell>
        <mxCell id="yLh817vD24dYJDE2Oi6T-46" value="num(11)" style="shape=partialRectangle;html=1;whiteSpace=wrap;connectable=0;strokeColor=inherit;overflow=hidden;fillColor=none;top=0;left=0;bottom=0;right=0;pointerEvents=1;fontSize=11;" vertex="1" parent="yLh817vD24dYJDE2Oi6T-43">
          <mxGeometry x="225" width="112" height="22" as="geometry">
            <mxRectangle width="112" height="22" as="alternateBounds" />
          </mxGeometry>
        </mxCell>
        <mxCell id="yLh817vD24dYJDE2Oi6T-60" style="shape=partialRectangle;html=1;whiteSpace=wrap;connectable=0;strokeColor=inherit;overflow=hidden;fillColor=none;top=0;left=0;bottom=0;right=0;pointerEvents=1;fontSize=11;" vertex="1" parent="yLh817vD24dYJDE2Oi6T-43">
          <mxGeometry x="337" width="111" height="22" as="geometry">
            <mxRectangle width="111" height="22" as="alternateBounds" />
          </mxGeometry>
        </mxCell>
        <mxCell id="yLh817vD24dYJDE2Oi6T-65" value="o" style="shape=partialRectangle;html=1;whiteSpace=wrap;connectable=0;strokeColor=inherit;overflow=hidden;fillColor=none;top=0;left=0;bottom=0;right=0;pointerEvents=1;fontSize=11;" vertex="1" parent="yLh817vD24dYJDE2Oi6T-43">
          <mxGeometry x="448" width="112" height="22" as="geometry">
            <mxRectangle width="112" height="22" as="alternateBounds" />
          </mxGeometry>
        </mxCell>
        <mxCell id="yLh817vD24dYJDE2Oi6T-51" value="1-1. 계정 DB" style="text;html=1;align=left;verticalAlign=middle;whiteSpace=wrap;rounded=0;" vertex="1" parent="1">
          <mxGeometry x="40" y="500" width="110" height="30" as="geometry" />
        </mxCell>
      </root>
    </mxGraphModel>
  </diagram>
</mxfile>
